<svg width="40" height="38" viewBox="0 0 40 38" fill="none" xmlns="http://www.w3.org/2000/svg">
<path d="M6.05469 18.102L20.8125 5.93379C20.9258 5.84102 21.0703 5.78906 21.2227 5.78906H24.6797C24.9687 5.78906 25.1016 6.13047 24.8828 6.30859L11.2031 17.5898H34.0625C34.2344 17.5898 34.375 17.7234 34.375 17.8867V20.1133C34.375 20.2766 34.2344 20.4102 34.0625 20.4102H11.207L24.8867 31.6914C25.1055 31.8732 24.9727 32.2109 24.6836 32.2109H21.1094C21.0352 32.2109 20.9609 32.185 20.9062 32.1367L6.05469 19.898C5.91946 19.7863 5.81103 19.6484 5.73673 19.4934C5.66243 19.3385 5.62398 19.1702 5.62398 19C5.62398 18.8298 5.66243 18.6615 5.73673 18.5066C5.81103 18.3516 5.91946 18.2137 6.05469 18.102Z" fill="url(#paint0_linear_6_1107)"/>
<defs>
<linearGradient id="paint0_linear_6_1107" x1="33.5895" y1="11.0734" x2="13.1284" y2="14.8119" gradientUnits="userSpaceOnUse">
<stop stop-color="#FFCC4E"/>
<stop offset="1" stop-color="#E6A80E"/>
</linearGradient>
</defs>
</svg>
