<svg width="40" height="38" viewBox="0 0 40 38" fill="none" xmlns="http://www.w3.org/2000/svg">
<path d="M33.9453 18.102L19.1875 5.93379C19.0742 5.84102 18.9297 5.78906 18.7773 5.78906H15.3203C15.0313 5.78906 14.8984 6.13047 15.1172 6.30859L28.7969 17.5898H5.9375C5.76563 17.5898 5.625 17.7234 5.625 17.8867V20.1133C5.625 20.2766 5.76563 20.4102 5.9375 20.4102H28.793L15.1133 31.6914C14.8945 31.8732 15.0273 32.2109 15.3164 32.2109H18.8906C18.9648 32.2109 19.0391 32.185 19.0938 32.1367L33.9453 19.898C34.0805 19.7863 34.189 19.6484 34.2633 19.4934C34.3376 19.3385 34.376 19.1702 34.376 19C34.376 18.8298 34.3376 18.6615 34.2633 18.5066C34.189 18.3516 34.0805 18.2137 33.9453 18.102Z" fill="url(#paint0_linear_6_1105)"/>
<defs>
<linearGradient id="paint0_linear_6_1105" x1="6.41055" y1="11.0734" x2="26.8716" y2="14.8119" gradientUnits="userSpaceOnUse">
<stop stop-color="#FFCC4E"/>
<stop offset="1" stop-color="#E6A80E"/>
</linearGradient>
</defs>
</svg>
